<svg version="1.1" id="Layer_1" xmlns="http://www.w3.org/2000/svg" xmlns:xlink="http://www.w3.org/1999/xlink" x="0px" y="0px"
	 width="100%" viewBox="0 0 654 788" enable-background="new 0 0 654 788" xml:space="preserve">
<path fill="#000000" opacity="1.000000" stroke="none" 
	d="
M345.000000,789.000000 
	C230.000000,789.000000 115.500000,789.000000 1.000000,789.000000 
	C1.000000,526.333313 1.000000,263.666656 1.000000,1.000000 
	C219.000000,1.000000 437.000000,1.000000 655.000000,1.000000 
	C655.000000,263.666656 655.000000,526.333313 655.000000,789.000000 
	C551.833313,789.000000 448.666656,789.000000 345.000000,789.000000 
M211.032639,554.032104 
	C211.032639,554.032104 211.033066,553.957520 210.544174,554.104126 
	C210.444672,554.394531 210.345184,554.684875 209.947266,555.608459 
	C208.756042,556.769348 207.394089,557.800842 206.400528,559.111511 
	C198.244812,569.870728 189.626389,580.328918 182.169250,591.556519 
	C169.757248,610.244141 157.422333,629.049072 146.363129,648.546570 
	C138.658188,662.130493 133.400101,676.886047 131.780579,692.903503 
	C130.512070,705.449402 132.383453,716.733459 138.840958,727.451843 
	C146.425842,740.041504 158.275467,746.884094 171.458954,751.883423 
	C188.056503,758.177429 205.223816,759.498962 222.697662,756.949890 
	C238.582062,754.632629 251.513046,746.689514 262.913361,735.629517 
	C239.036621,688.975769 225.461899,639.804382 221.951645,587.092041 
	C221.910797,586.008423 221.869965,584.924866 221.966888,582.939270 
	C221.930206,574.003113 221.893524,565.066895 222.029129,555.231079 
	C222.344284,550.759460 222.659424,546.287781 223.072098,540.432251 
	C220.736771,542.933350 219.333130,544.436584 217.974792,545.985779 
	C217.974792,545.985779 217.983536,545.921875 217.435898,546.036804 
	C217.264053,546.350647 217.092209,546.664490 216.986053,546.987000 
	C216.986053,546.987000 216.982025,546.920837 216.406509,547.008423 
	C216.239349,547.338196 216.072205,547.668030 215.980377,547.989807 
	C215.980377,547.989807 215.971924,547.914551 215.401657,548.193298 
	C215.246429,548.799072 215.091187,549.404846 215.004654,550.010376 
	C215.004654,550.010376 215.001099,549.941833 214.477280,550.110840 
	C214.290283,550.415771 214.103287,550.720764 214.020599,551.023438 
	C214.020599,551.023438 214.019012,550.919128 213.471298,551.070312 
	C213.287125,551.386719 213.102951,551.703064 213.018021,552.017761 
	C213.018021,552.017761 213.016846,551.918457 212.472168,552.071472 
	C212.296234,552.389038 212.120285,552.706543 212.023865,553.017700 
	C212.023865,553.017700 212.018036,552.938171 211.487762,553.100525 
	C211.311203,553.411255 211.134628,553.721985 211.032639,554.032104 
M608.889343,601.490662 
	C608.591736,601.312500 608.294067,601.134399 607.994385,600.999390 
	C607.994385,600.999390 608.035400,600.988892 607.787292,600.361328 
	C601.085327,594.649963 594.687317,588.521912 587.594238,583.346619 
	C580.774780,578.371033 573.235901,574.381531 565.997803,569.999084 
	C565.997803,569.999084 566.036560,569.983337 565.784180,569.324341 
	C562.530457,567.533325 559.276794,565.742371 555.998474,563.998413 
	C555.998474,563.998413 556.039612,563.968262 555.778442,563.333557 
	C554.523560,562.870911 553.268738,562.408325 551.997253,561.997559 
	C551.997253,561.997559 552.046631,561.976624 551.786621,561.312500 
	C545.864014,558.196106 539.941467,555.079651 533.999146,551.999451 
	C533.999146,551.999451 534.029602,551.974792 533.754089,551.310913 
	C513.431580,541.861450 493.240143,532.113159 472.721588,523.110474 
	C464.578644,519.537720 455.710052,517.618835 446.730865,514.169067 
	C439.936584,514.169067 433.142334,514.169067 425.388062,514.169067 
	C426.691589,515.678772 427.368988,516.463318 428.321655,517.834778 
	C434.865875,525.411011 441.645325,532.798645 447.904266,540.603638 
	C460.157684,555.883911 472.567352,571.071472 484.099030,586.890259 
	C501.243774,610.408997 516.666199,635.053223 527.883301,662.049927 
	C535.217651,679.701660 539.279663,697.910461 533.829590,716.916443 
	C532.334961,722.128845 534.386047,723.756775 538.735107,725.074097 
	C552.090759,729.119507 565.733704,730.153503 579.141174,726.721619 
	C591.588440,723.535522 603.108643,717.825195 611.997681,707.998840 
	C611.997681,707.998840 612.003052,708.031128 612.702148,707.944824 
	C615.985046,704.618713 619.625854,701.570984 622.475159,697.907593 
	C628.142944,690.620422 634.066772,683.374084 635.920898,673.538818 
	C635.920898,673.538818 635.934814,673.190063 636.606812,672.882935 
	C636.775146,671.941772 636.943481,671.000549 637.600037,669.945984 
	C637.702454,669.656311 637.804871,669.366638 638.014893,668.312561 
	C637.940735,667.550110 637.866577,666.787720 638.013550,665.502014 
	C638.308777,665.058838 638.604004,664.615601 639.016968,663.226624 
	C638.658264,658.425049 638.299561,653.623474 637.932190,648.451843 
	C637.932190,648.451843 637.787781,648.111084 637.940063,647.283447 
	C636.954895,643.717346 636.557678,639.838806 634.862915,636.649780 
	C631.273682,629.896545 627.007507,623.502930 623.001648,617.004639 
	C623.001648,617.004639 623.048340,616.998840 622.888306,616.486267 
	C622.590576,616.306274 622.292908,616.126282 621.993408,615.999084 
	C621.993408,615.999084 622.045654,615.991394 621.973633,615.294006 
	C619.985901,613.184875 617.998169,611.075684 616.000183,609.004944 
	C616.000183,609.004944 616.040894,609.002747 615.887573,608.489441 
	C615.590393,608.311218 615.293152,608.132996 614.994507,608.000305 
	C614.994507,608.000305 615.039062,607.992065 614.988892,607.276794 
	C613.662231,606.169678 612.335510,605.062622 610.998779,604.001892 
	C610.998779,604.001892 611.045288,603.992615 610.987915,603.274536 
	C610.327454,602.835754 609.667053,602.396912 608.999084,602.005005 
	C608.999084,602.005005 609.046692,602.003479 608.889343,601.490662 
M434.050446,589.776062 
	C433.718689,591.024902 433.221466,592.255432 433.081543,593.525452 
	C432.039795,602.983582 431.162659,612.460571 430.056641,621.910889 
	C427.581085,643.063293 422.361206,663.667175 415.486481,683.703491 
	C409.886322,700.025269 402.549530,715.770142 395.543640,731.576172 
	C393.963867,735.140137 394.191101,737.262024 396.970032,739.571167 
	C405.027100,746.266357 413.792725,751.790527 423.810211,754.975525 
	C436.578735,759.035034 449.626526,758.520020 462.764130,757.024292 
	C477.501343,755.346436 491.098419,750.921448 503.073669,741.966003 
	C511.062592,735.991638 517.565430,728.824463 520.958923,719.287659 
	C526.284668,704.320618 524.784546,689.367493 520.177246,674.593872 
	C514.702454,657.038696 505.604553,641.180725 496.022003,625.660828 
	C488.970093,614.239624 481.385132,603.121338 473.561066,592.209839 
	C463.825806,578.632812 453.709625,565.323181 443.520477,552.080872 
	C440.385986,548.007141 436.473053,544.532349 432.916595,540.783325 
	C432.584045,540.986389 432.251495,541.189392 431.918915,541.392456 
	C432.694489,546.628845 433.470062,551.865295 434.107574,558.013855 
	C434.155060,568.321838 434.202576,578.629883 434.050446,589.776062 
M188.565475,520.016479 
	C188.016174,520.341553 187.466888,520.666626 186.577438,521.022827 
	C186.577438,521.022827 186.261368,521.152344 185.604294,521.025024 
	C185.346176,521.360474 185.088058,521.695862 184.493027,522.081360 
	C184.493027,522.081360 184.173264,522.198608 183.445068,522.005493 
	C182.882401,522.354065 182.319733,522.702637 181.482880,523.062561 
	C181.482880,523.062561 181.227112,523.162048 180.586746,523.035217 
	C180.340546,523.366943 180.094345,523.698608 179.093124,524.043884 
	C178.595764,524.078979 178.029297,523.969727 177.611038,524.169983 
	C160.176285,532.517761 142.606339,540.600342 125.368874,549.338562 
	C103.339554,560.505859 81.771378,572.411499 62.255386,587.860962 
	C49.086975,598.285522 36.535233,609.017761 27.309990,623.265442 
	C17.274256,638.764832 13.721246,655.196167 19.599710,673.041382 
	C27.345984,696.556763 43.255310,712.770813 65.559143,722.738831 
	C82.274147,730.209045 99.561600,730.787048 116.950211,724.955261 
	C120.962288,723.609802 123.453476,721.225708 121.262939,716.390259 
	C120.419395,714.528259 120.203918,712.315063 120.014549,710.233521 
	C118.037659,688.503906 123.687027,668.476379 133.332672,649.224670 
	C143.703247,628.526123 155.629395,608.797913 168.989548,589.912292 
	C184.211700,568.394653 200.320435,547.592834 218.216568,528.201904 
	C221.416275,524.734924 224.088913,520.781433 227.697433,516.731873 
	C227.639526,515.830505 227.581604,514.929138 227.523697,514.027771 
	C218.933411,514.690613 210.093262,512.184631 201.466522,516.067810 
	C201.466522,516.067810 201.203873,516.190430 200.387863,516.024231 
	C196.845398,517.375366 193.302933,518.726501 189.493439,520.085327 
	C189.493439,520.085327 189.249023,520.193176 188.565475,520.016479 
M249.175674,514.384521 
	C244.780182,515.141418 241.042587,516.816895 240.037582,521.703308 
	C237.991028,531.653870 234.731476,541.574585 234.336258,551.600769 
	C233.426926,574.669434 232.634995,597.952637 237.219025,620.721191 
	C241.191010,640.449707 246.323761,659.992859 251.941559,679.327942 
	C257.353455,697.954407 265.017059,715.760925 274.891541,732.580322 
	C283.699463,747.582947 293.905212,761.369995 308.639008,770.964783 
	C318.821320,777.595764 330.382385,778.060486 341.470795,773.924255 
	C355.165436,768.815796 364.749237,758.258423 372.989807,746.587097 
	C387.386658,726.196472 397.046661,703.552429 404.612671,679.872864 
	C413.829926,651.025269 419.696686,621.466919 421.693146,591.354614 
	C422.823059,574.312500 423.504456,556.921997 419.816681,539.996765 
	C417.993469,531.628845 414.521027,523.620300 411.932526,514.493774 
	C410.310486,514.335388 408.688599,514.040161 407.066406,514.038696 
	C370.801910,514.006531 334.537384,513.988220 298.272858,514.009216 
	C282.141205,514.018494 266.009613,514.119324 249.175674,514.384521 
M310.956177,431.962708 
	C306.685486,431.639526 302.397461,431.463165 298.147980,430.960754 
	C290.654938,430.074860 283.212128,428.638794 275.700043,428.067749 
	C263.318756,427.126465 250.898193,426.706573 238.495880,426.035431 
	C231.866837,425.676727 225.233917,425.346954 218.616455,424.829102 
	C212.735977,424.368927 206.882446,423.530609 200.997864,423.185211 
	C199.791275,423.114380 197.904694,424.175690 197.339340,425.246979 
	C191.584488,436.151855 188.255493,447.792725 188.086716,460.155182 
	C187.921951,472.222534 191.245529,483.572418 195.780853,494.660431 
	C196.843109,497.257446 198.182449,498.022308 200.840866,498.002075 
	C214.999832,497.894226 229.160095,497.958618 243.319901,497.958710 
	C307.622101,497.959015 371.924286,497.942719 436.226471,498.001343 
	C439.447815,498.004272 441.325317,497.328644 443.123596,494.094177 
	C451.270081,479.441650 450.474152,464.323761 445.769409,449.175232 
	C444.475861,445.010193 441.668030,440.418427 435.536377,440.977203 
	C432.717377,441.234100 429.832367,441.199341 427.012207,440.930542 
	C417.890961,440.061279 408.800232,438.846588 399.670166,438.103424 
	C392.179382,437.493713 384.634674,437.557739 377.140106,436.981476 
	C366.000641,436.125061 354.887939,434.925690 343.755341,433.970947 
	C341.385620,433.767731 338.967804,434.152985 336.592407,433.983429 
	C328.343781,433.394501 320.104034,432.680756 310.956177,431.962708 
M473.968170,58.652267 
	C465.767883,47.035477 457.278229,35.608646 449.479156,23.728464 
	C445.017212,16.931627 442.505280,14.629448 435.474823,16.104109 
	C414.524475,20.498503 398.981476,32.326847 388.475922,50.947590 
	C386.706207,54.084404 386.838165,56.677425 389.007965,59.489239 
	C395.470642,67.864090 401.755951,76.376297 408.251465,84.725212 
	C420.372894,100.305237 432.643158,115.769478 444.759338,131.353500 
	C457.161713,147.305496 469.458771,163.339386 481.792145,179.344986 
	C490.656555,190.848679 499.385986,202.458832 508.394775,213.848160 
	C516.908325,224.611313 525.572815,235.264114 534.508789,245.675476 
	C536.076355,247.501816 539.310486,248.807205 541.775024,248.807358 
	C558.327148,248.808395 575.871887,236.773651 581.872864,218.994308 
	C582.502502,217.129105 582.053101,214.194427 580.933960,212.554688 
	C571.027405,198.039352 560.782471,183.755600 550.786011,169.300766 
	C542.163635,156.832962 533.834167,144.162445 525.193481,131.707565 
	C516.454895,119.111534 507.488373,106.673653 498.630463,94.160301 
	C490.428619,82.573769 482.238342,70.979027 473.968170,58.652267 
M489.784576,300.075409 
	C492.173950,300.245300 494.848541,301.202789 496.906555,300.457611 
	C510.453003,295.552338 520.187805,286.153320 525.431641,272.900482 
	C529.212585,263.344604 530.804932,260.092743 521.639648,252.113052 
	C512.091187,243.799820 502.688293,235.318283 493.280670,226.844910 
	C479.358856,214.305634 465.409088,201.795456 451.622375,189.108643 
	C440.646515,179.008438 429.913300,168.644928 419.037750,158.435181 
	C415.193451,154.826294 411.270050,151.300491 407.342407,147.781799 
	C394.530212,136.303604 381.700714,124.844704 368.875122,113.381454 
	C362.624603,107.794853 356.458405,102.107346 350.040192,96.720299 
	C348.709717,95.603600 346.187317,94.780296 344.632629,95.239197 
	C334.055176,98.361458 325.339294,104.525223 318.140289,112.796928 
	C311.659973,120.242851 307.361206,128.923477 303.904114,138.130630 
	C301.496216,144.543457 301.586304,146.923340 306.750610,151.277054 
	C312.750549,156.335236 319.050629,161.035477 325.134552,165.996414 
	C335.147156,174.160889 345.084290,182.417877 355.065308,190.621140 
	C363.307129,197.394974 371.548859,204.169159 379.822723,210.903763 
	C389.574371,218.841278 399.386444,226.704712 409.124146,234.659210 
	C417.755310,241.709793 426.297638,248.869095 434.920502,255.929947 
	C446.558685,265.459900 458.207306,274.977631 469.908997,284.429382 
	C476.264801,289.563171 482.739746,294.549469 489.784576,300.075409 
M471.013367,305.545319 
	C459.499176,298.734802 448.061768,291.790070 436.450562,285.149109 
	C423.150940,277.542450 409.632355,270.318848 396.326202,262.723297 
	C378.838318,252.740707 361.475647,242.539062 344.037994,232.468155 
	C334.685242,227.066620 325.319092,221.686859 315.903900,216.395233 
	C302.542664,208.885834 289.174988,201.384186 275.674561,194.131485 
	C274.258942,193.370972 271.319489,193.581268 270.131775,194.581589 
	C264.665070,199.185791 258.818298,203.648438 254.490952,209.233505 
	C244.433884,222.213715 240.333099,237.422226 239.995102,253.600952 
	C256.659241,262.055908 272.897430,270.382111 289.211853,278.556274 
	C343.808258,305.911194 398.431152,333.213379 453.046326,360.530853 
	C459.194061,363.605804 462.750549,363.222290 467.921265,358.547363 
	C479.635590,347.956299 486.962646,335.382874 486.081024,318.903717 
	C485.905792,315.628967 485.310577,313.330780 482.313477,311.798401 
	C478.704376,309.953064 475.188812,307.924835 471.013367,305.545319 
M283.300720,322.013672 
	C277.866394,320.519653 272.393524,319.152008 267.005402,317.506653 
	C253.809189,313.476990 240.716400,309.085876 227.421494,305.422668 
	C224.955856,304.743286 220.632706,305.877106 219.083847,307.755096 
	C215.005859,312.699677 211.629639,318.327240 208.612350,324.021118 
	C201.957794,336.578796 201.349014,350.109985 203.051575,363.917694 
	C203.741272,369.511200 206.181061,372.910095 212.289062,373.724152 
	C218.033142,374.489746 223.646912,376.250305 229.309036,377.610474 
	C247.901123,382.076782 266.513672,386.461090 285.073303,391.058746 
	C317.811859,399.168915 350.506714,407.455627 383.240692,415.584534 
	C401.418152,420.098602 419.610260,424.564331 437.876038,428.697052 
	C439.958710,429.168274 443.095062,427.970184 444.836487,426.484009 
	C457.532654,415.649109 459.881317,401.059296 458.920471,385.474579 
	C458.556122,379.564606 456.232086,375.011475 449.832001,373.260132 
	C443.162659,371.435089 436.644318,369.065338 430.027374,367.040283 
	C411.448883,361.354431 392.840149,355.767212 374.269012,350.057617 
	C358.149475,345.101776 342.082672,339.974304 325.959686,335.029877 
	C312.005280,330.750458 298.004700,326.621674 283.300720,322.013672 
z"/>
<path fill="#FD5C58" opacity="1.000000" stroke="none" 
	d="
M411.794800,515.449158 
	C414.521027,523.620300 417.993469,531.628845 419.816681,539.996765 
	C423.504456,556.921997 422.823059,574.312500 421.693146,591.354614 
	C419.696686,621.466919 413.829926,651.025269 404.612671,679.872864 
	C397.046661,703.552429 387.386658,726.196472 372.989807,746.587097 
	C364.749237,758.258423 355.165436,768.815796 341.470795,773.924255 
	C330.382385,778.060486 318.821320,777.595764 308.639008,770.964783 
	C293.905212,761.369995 283.699463,747.582947 274.891541,732.580322 
	C265.017059,715.760925 257.353455,697.954407 251.941559,679.327942 
	C246.323761,659.992859 241.191010,640.449707 237.219025,620.721191 
	C232.634995,597.952637 233.426926,574.669434 234.336258,551.600769 
	C234.731476,541.574585 237.991028,531.653870 240.037582,521.703308 
	C241.042587,516.816895 244.780182,515.141418 249.894073,514.500366 
	C252.422775,514.779053 254.233032,515.083740 256.043335,515.083984 
	C305.473511,515.090637 354.903717,515.060486 404.333893,515.064392 
	C406.820862,515.064575 409.307831,515.315186 411.794800,515.449158 
z"/>
<path fill="#FC5D5A" opacity="1.000000" stroke="none" 
	d="
M227.004913,517.052612 
	C224.088913,520.781433 221.416275,524.734924 218.216568,528.201904 
	C200.320435,547.592834 184.211700,568.394653 168.989548,589.912292 
	C155.629395,608.797913 143.703247,628.526123 133.332672,649.224670 
	C123.687027,668.476379 118.037659,688.503906 120.014549,710.233521 
	C120.203918,712.315063 120.419395,714.528259 121.262939,716.390259 
	C123.453476,721.225708 120.962288,723.609802 116.950211,724.955261 
	C99.561600,730.787048 82.274147,730.209045 65.559143,722.738831 
	C43.255310,712.770813 27.345984,696.556763 19.599710,673.041382 
	C13.721246,655.196167 17.274256,638.764832 27.309990,623.265442 
	C36.535233,609.017761 49.086975,598.285522 62.255386,587.860962 
	C81.771378,572.411499 103.339554,560.505859 125.368874,549.338562 
	C142.606339,540.600342 160.176285,532.517761 177.611038,524.169983 
	C178.029297,523.969727 178.595764,524.078979 179.721741,523.928345 
	C180.642609,523.595886 180.934845,523.378967 181.227112,523.162048 
	C181.227112,523.162048 181.482880,523.062561 181.944946,523.024414 
	C182.995773,522.723633 183.584518,522.461121 184.173248,522.198608 
	C184.173264,522.198608 184.493027,522.081360 184.922028,521.948120 
	C185.654465,521.593994 185.957916,521.373169 186.261368,521.152344 
	C186.261368,521.152344 186.577438,521.022827 187.055939,520.963257 
	C188.105957,520.666870 188.677490,520.430054 189.249023,520.193176 
	C189.249023,520.193176 189.493439,520.085327 190.044800,520.075439 
	C194.132065,518.773926 197.667969,517.482178 201.203873,516.190430 
	C201.203873,516.190430 201.466522,516.067810 202.075653,516.064758 
	C209.086899,515.733948 215.487259,515.253967 221.892273,515.180786 
	C223.589142,515.161438 225.300308,516.394531 227.004913,517.052612 
z"/>
<path fill="#FE5C58" opacity="1.000000" stroke="none" 
	d="
M637.787781,648.111084 
	C637.787781,648.111084 637.932190,648.451843 637.911499,649.116882 
	C637.803284,654.149780 637.715881,658.517578 637.403564,663.032471 
	C637.114746,664.127014 637.050903,665.074524 636.972290,666.339783 
	C636.917297,667.080078 636.877014,667.502563 636.612244,668.015259 
	C636.254150,668.751343 636.120605,669.397156 635.969604,670.434692 
	C635.946411,671.614258 635.940613,672.402161 635.934814,673.190063 
	C635.934814,673.190063 635.920898,673.538818 635.552124,673.856384 
	C629.770935,682.479980 624.428284,690.832825 618.910400,699.068237 
	C616.815430,702.194885 614.317383,705.051453 612.003052,708.031128 
	C612.003052,708.031128 611.997681,707.998840 611.651489,708.021362 
	C610.009460,708.729431 608.591614,709.253113 607.436340,710.124878 
	C590.059021,723.237122 570.717163,729.196289 548.994263,725.765442 
	C544.381714,725.036926 539.982178,722.959290 536.195557,721.733398 
	C537.150635,712.556335 539.083069,704.270935 538.634705,696.116455 
	C537.749817,680.021973 532.462280,664.892151 525.395874,650.452759 
	C511.753632,622.576538 495.459290,596.328796 476.197510,571.991089 
	C463.113373,555.458984 449.750061,539.143555 436.251801,522.947754 
	C433.986115,520.229309 432.981995,518.190002 435.523224,515.196045 
	C437.930939,515.186035 439.915405,515.209351 442.055298,515.505920 
	C447.339233,516.793152 452.836914,516.949158 457.532654,518.969238 
	C478.085724,527.811279 498.377136,537.259521 518.832642,546.331909 
	C523.762695,548.518555 528.956909,550.109741 534.029602,551.974792 
	C534.029602,551.974792 533.999146,551.999451 534.109863,552.306885 
	C540.162659,555.735107 546.104614,558.855896 552.046631,561.976624 
	C552.046631,561.976624 551.997253,561.997559 552.138245,562.294067 
	C553.532715,563.049866 554.786133,563.509033 556.039612,563.968262 
	C556.039612,563.968262 555.998474,563.998413 556.106934,564.301331 
	C559.489136,566.397278 562.762878,568.190308 566.036560,569.983337 
	C566.036560,569.983337 565.997803,569.999084 566.082275,570.315918 
	C566.918396,571.475769 567.546021,572.490906 568.440674,573.135437 
	C578.519226,580.396301 588.622375,587.623413 598.757385,594.805298 
	C601.788574,596.953308 604.939392,598.932434 608.035400,600.988892 
	C608.035400,600.988892 607.994385,600.999390 608.138489,601.182739 
	C608.499634,601.623779 608.754333,601.836243 609.046692,602.003479 
	C609.046692,602.003479 608.999084,602.005005 609.093872,602.276001 
	C609.807495,603.028870 610.426392,603.510742 611.045288,603.992615 
	C611.045288,603.992615 610.998779,604.001892 611.072693,604.313416 
	C612.444092,605.747314 613.741577,606.869690 615.039062,607.992065 
	C615.039062,607.992065 614.994507,608.000305 615.137268,608.182617 
	C615.495422,608.623108 615.749023,608.835693 616.040894,609.002747 
	C616.040894,609.002747 616.000183,609.004944 616.022400,609.347290 
	C618.044983,611.790161 620.045349,613.890747 622.045654,615.991394 
	C622.045654,615.991394 621.993408,615.999084 622.138062,616.178467 
	C622.537903,616.571472 622.793091,616.785156 623.048340,616.998840 
	C623.048340,616.998840 623.001648,617.004639 623.021545,617.354858 
	C623.562317,619.081421 623.990234,620.501831 624.619324,621.826782 
	C628.349304,629.683228 632.109192,637.525574 635.907593,645.349060 
	C636.388916,646.340332 637.154114,647.193787 637.787781,648.111084 
z"/>
<path fill="#FD5C59" opacity="1.000000" stroke="none" 
	d="
M311.408569,431.988586 
	C320.104034,432.680756 328.343781,433.394501 336.592407,433.983429 
	C338.967804,434.152985 341.385620,433.767731 343.755341,433.970947 
	C354.887939,434.925690 366.000641,436.125061 377.140106,436.981476 
	C384.634674,437.557739 392.179382,437.493713 399.670166,438.103424 
	C408.800232,438.846588 417.890961,440.061279 427.012207,440.930542 
	C429.832367,441.199341 432.717377,441.234100 435.536377,440.977203 
	C441.668030,440.418427 444.475861,445.010193 445.769409,449.175232 
	C450.474152,464.323761 451.270081,479.441650 443.123596,494.094177 
	C441.325317,497.328644 439.447815,498.004272 436.226471,498.001343 
	C371.924286,497.942719 307.622101,497.959015 243.319901,497.958710 
	C229.160095,497.958618 214.999832,497.894226 200.840866,498.002075 
	C198.182449,498.022308 196.843109,497.257446 195.780853,494.660431 
	C191.245529,483.572418 187.921951,472.222534 188.086716,460.155182 
	C188.255493,447.792725 191.584488,436.151855 197.339340,425.246979 
	C197.904694,424.175690 199.791275,423.114380 200.997864,423.185211 
	C206.882446,423.530609 212.735977,424.368927 218.616455,424.829102 
	C225.233917,425.346954 231.866837,425.676727 238.495880,426.035431 
	C250.898193,426.706573 263.318756,427.126465 275.700043,428.067749 
	C283.212128,428.638794 290.654938,430.074860 298.147980,430.960754 
	C302.397461,431.463165 306.685486,431.639526 311.408569,431.988586 
z"/>
<path fill="#FC5E5A" opacity="1.000000" stroke="none" 
	d="
M474.005554,59.020088 
	C482.238342,70.979027 490.428619,82.573769 498.630463,94.160301 
	C507.488373,106.673653 516.454895,119.111534 525.193481,131.707565 
	C533.834167,144.162445 542.163635,156.832962 550.786011,169.300766 
	C560.782471,183.755600 571.027405,198.039352 580.933960,212.554688 
	C582.053101,214.194427 582.502502,217.129105 581.872864,218.994308 
	C575.871887,236.773651 558.327148,248.808395 541.775024,248.807358 
	C539.310486,248.807205 536.076355,247.501816 534.508789,245.675476 
	C525.572815,235.264114 516.908325,224.611313 508.394775,213.848160 
	C499.385986,202.458832 490.656555,190.848679 481.792145,179.344986 
	C469.458771,163.339386 457.161713,147.305496 444.759338,131.353500 
	C432.643158,115.769478 420.372894,100.305237 408.251465,84.725212 
	C401.755951,76.376297 395.470642,67.864090 389.007965,59.489239 
	C386.838165,56.677425 386.706207,54.084404 388.475922,50.947590 
	C398.981476,32.326847 414.524475,20.498503 435.474823,16.104109 
	C442.505280,14.629448 445.017212,16.931627 449.479156,23.728464 
	C457.278229,35.608646 465.767883,47.035477 474.005554,59.020088 
z"/>
<path fill="#FC5E5A" opacity="1.000000" stroke="none" 
	d="
M489.472778,299.838837 
	C482.739746,294.549469 476.264801,289.563171 469.908997,284.429382 
	C458.207306,274.977631 446.558685,265.459900 434.920502,255.929947 
	C426.297638,248.869095 417.755310,241.709793 409.124146,234.659210 
	C399.386444,226.704712 389.574371,218.841278 379.822723,210.903763 
	C371.548859,204.169159 363.307129,197.394974 355.065308,190.621140 
	C345.084290,182.417877 335.147156,174.160889 325.134552,165.996414 
	C319.050629,161.035477 312.750549,156.335236 306.750610,151.277054 
	C301.586304,146.923340 301.496216,144.543457 303.904114,138.130630 
	C307.361206,128.923477 311.659973,120.242851 318.140289,112.796928 
	C325.339294,104.525223 334.055176,98.361458 344.632629,95.239197 
	C346.187317,94.780296 348.709717,95.603600 350.040192,96.720299 
	C356.458405,102.107346 362.624603,107.794853 368.875122,113.381454 
	C381.700714,124.844704 394.530212,136.303604 407.342407,147.781799 
	C411.270050,151.300491 415.193451,154.826294 419.037750,158.435181 
	C429.913300,168.644928 440.646515,179.008438 451.622375,189.108643 
	C465.409088,201.795456 479.358856,214.305634 493.280670,226.844910 
	C502.688293,235.318283 512.091187,243.799820 521.639648,252.113052 
	C530.804932,260.092743 529.212585,263.344604 525.431641,272.900482 
	C520.187805,286.153320 510.453003,295.552338 496.906555,300.457611 
	C494.848541,301.202789 492.173950,300.245300 489.472778,299.838837 
z"/>
<path fill="#FC5E5A" opacity="1.000000" stroke="none" 
	d="
M471.323059,305.760559 
	C475.188812,307.924835 478.704376,309.953064 482.313477,311.798401 
	C485.310577,313.330780 485.905792,315.628967 486.081024,318.903717 
	C486.962646,335.382874 479.635590,347.956299 467.921265,358.547363 
	C462.750549,363.222290 459.194061,363.605804 453.046326,360.530853 
	C398.431152,333.213379 343.808258,305.911194 289.211853,278.556274 
	C272.897430,270.382111 256.659241,262.055908 239.995102,253.600952 
	C240.333099,237.422226 244.433884,222.213715 254.490952,209.233505 
	C258.818298,203.648438 264.665070,199.185791 270.131775,194.581589 
	C271.319489,193.581268 274.258942,193.370972 275.674561,194.131485 
	C289.174988,201.384186 302.542664,208.885834 315.903900,216.395233 
	C325.319092,221.686859 334.685242,227.066620 344.037994,232.468155 
	C361.475647,242.539062 378.838318,252.740707 396.326202,262.723297 
	C409.632355,270.318848 423.150940,277.542450 436.450562,285.149109 
	C448.061768,291.790070 459.499176,298.734802 471.323059,305.760559 
z"/>
<path fill="#FC5D5A" opacity="1.000000" stroke="none" 
	d="
M283.662598,322.220001 
	C298.004700,326.621674 312.005280,330.750458 325.959686,335.029877 
	C342.082672,339.974304 358.149475,345.101776 374.269012,350.057617 
	C392.840149,355.767212 411.448883,361.354431 430.027374,367.040283 
	C436.644318,369.065338 443.162659,371.435089 449.832001,373.260132 
	C456.232086,375.011475 458.556122,379.564606 458.920471,385.474579 
	C459.881317,401.059296 457.532654,415.649109 444.836487,426.484009 
	C443.095062,427.970184 439.958710,429.168274 437.876038,428.697052 
	C419.610260,424.564331 401.418152,420.098602 383.240692,415.584534 
	C350.506714,407.455627 317.811859,399.168915 285.073303,391.058746 
	C266.513672,386.461090 247.901123,382.076782 229.309036,377.610474 
	C223.646912,376.250305 218.033142,374.489746 212.289062,373.724152 
	C206.181061,372.910095 203.741272,369.511200 203.051575,363.917694 
	C201.349014,350.109985 201.957794,336.578796 208.612350,324.021118 
	C211.629639,318.327240 215.005859,312.699677 219.083847,307.755096 
	C220.632706,305.877106 224.955856,304.743286 227.421494,305.422668 
	C240.716400,309.085876 253.809189,313.476990 267.005402,317.506653 
	C272.393524,319.152008 277.866394,320.519653 283.662598,322.220001 
z"/>
<path fill="#FC5D59" opacity="1.000000" stroke="none" 
	d="
M221.813019,587.889221 
	C225.461899,639.804382 239.036621,688.975769 262.913361,735.629517 
	C251.513046,746.689514 238.582062,754.632629 222.697662,756.949890 
	C205.223816,759.498962 188.056503,758.177429 171.458954,751.883423 
	C158.275467,746.884094 146.425842,740.041504 138.840958,727.451843 
	C132.383453,716.733459 130.512070,705.449402 131.780579,692.903503 
	C133.400101,676.886047 138.658188,662.130493 146.363129,648.546570 
	C157.422333,629.049072 169.757248,610.244141 182.169250,591.556519 
	C189.626389,580.328918 198.244812,569.870728 206.400528,559.111511 
	C207.394089,557.800842 208.756042,556.769348 210.245041,555.136108 
	C210.734848,554.448181 210.898270,554.212769 211.033066,553.957520 
	C211.033066,553.957520 211.032639,554.032104 211.224304,553.905640 
	C211.616669,553.498840 211.817368,553.218506 212.018036,552.938171 
	C212.018036,552.938171 212.023865,553.017700 212.203293,552.878906 
	C212.594101,552.466248 212.805466,552.192322 213.016846,551.918457 
	C213.016846,551.918457 213.018021,552.017761 213.189331,551.875732 
	C213.580093,551.462158 213.799561,551.190613 214.019012,550.919128 
	C214.019012,550.919128 214.020599,551.023438 214.172882,550.868347 
	C214.550476,550.456116 214.775787,550.198975 215.001099,549.941833 
	C215.001099,549.941833 215.004654,550.010376 215.174438,549.790588 
	C215.553452,549.018738 215.762680,548.466614 215.971924,547.914551 
	C215.971924,547.914551 215.980377,547.989807 216.184616,547.884277 
	C216.586578,547.492798 216.784302,547.206787 216.982025,546.920837 
	C216.982025,546.920837 216.986053,546.987000 217.197800,546.884155 
	C217.600876,546.494812 217.792206,546.208313 217.983536,545.921875 
	C217.983536,545.921875 217.974792,545.985779 218.330963,546.058716 
	C219.424576,548.054260 220.803177,549.980286 220.792923,551.898926 
	C220.736404,562.466858 220.270752,573.032104 220.143768,583.600708 
	C220.126678,585.023315 221.229034,586.459412 221.813019,587.889221 
z"/>
<path fill="#FC5D59" opacity="1.000000" stroke="none" 
	d="
M434.245605,557.101746 
	C433.470062,551.865295 432.694489,546.628845 431.918915,541.392456 
	C432.251495,541.189392 432.584045,540.986389 432.916595,540.783325 
	C436.473053,544.532349 440.385986,548.007141 443.520477,552.080872 
	C453.709625,565.323181 463.825806,578.632812 473.561066,592.209839 
	C481.385132,603.121338 488.970093,614.239624 496.022003,625.660828 
	C505.604553,641.180725 514.702454,657.038696 520.177246,674.593872 
	C524.784546,689.367493 526.284668,704.320618 520.958923,719.287659 
	C517.565430,728.824463 511.062592,735.991638 503.073669,741.966003 
	C491.098419,750.921448 477.501343,755.346436 462.764130,757.024292 
	C449.626526,758.520020 436.578735,759.035034 423.810211,754.975525 
	C413.792725,751.790527 405.027100,746.266357 396.970032,739.571167 
	C394.191101,737.262024 393.963867,735.140137 395.543640,731.576172 
	C402.549530,715.770142 409.886322,700.025269 415.486481,683.703491 
	C422.361206,663.667175 427.581085,643.063293 430.056641,621.910889 
	C431.162659,612.460571 432.039795,602.983582 433.081543,593.525452 
	C433.221466,592.255432 433.718689,591.024902 434.269531,588.970703 
	C434.407593,577.810852 434.326599,567.456299 434.245605,557.101746 
z"/>
<path fill="#EA6966" opacity="1.000000" stroke="none" 
	d="
M435.100006,515.229248 
	C432.981995,518.190002 433.986115,520.229309 436.251801,522.947754 
	C449.750061,539.143555 463.113373,555.458984 476.197510,571.991089 
	C495.459290,596.328796 511.753632,622.576538 525.395874,650.452759 
	C532.462280,664.892151 537.749817,680.021973 538.634705,696.116455 
	C539.083069,704.270935 537.150635,712.556335 536.195557,721.733398 
	C539.982178,722.959290 544.381714,725.036926 548.994263,725.765442 
	C570.717163,729.196289 590.059021,723.237122 607.436340,710.124878 
	C608.591614,709.253113 610.009460,708.729431 611.667358,708.024170 
	C603.108643,717.825195 591.588440,723.535522 579.141174,726.721619 
	C565.733704,730.153503 552.090759,729.119507 538.735107,725.074097 
	C534.386047,723.756775 532.334961,722.128845 533.829590,716.916443 
	C539.279663,697.910461 535.217651,679.701660 527.883301,662.049927 
	C516.666199,635.053223 501.243774,610.408997 484.099030,586.890259 
	C472.567352,571.071472 460.157684,555.883911 447.904266,540.603638 
	C441.645325,532.798645 434.865875,525.411011 428.323700,517.180481 
	C430.583832,516.093872 432.841919,515.661560 435.100006,515.229248 
z"/>
<path fill="#EA6966" opacity="1.000000" stroke="none" 
	d="
M533.891846,551.642822 
	C528.956909,550.109741 523.762695,548.518555 518.832642,546.331909 
	C498.377136,537.259521 478.085724,527.811279 457.532654,518.969238 
	C452.836914,516.949158 447.339233,516.793152 442.493896,515.446167 
	C444.242035,515.057800 445.706940,515.002441 447.171814,514.947021 
	C455.710052,517.618835 464.578644,519.537720 472.721588,523.110474 
	C493.240143,532.113159 513.431580,541.861450 533.891846,551.642822 
z"/>
<path fill="#D07F7E" opacity="1.000000" stroke="none" 
	d="
M411.863647,514.971436 
	C409.307831,515.315186 406.820862,515.064575 404.333893,515.064392 
	C354.903717,515.060486 305.473511,515.090637 256.043335,515.083984 
	C254.233032,515.083740 252.422775,514.779053 250.245239,514.397400 
	C266.009613,514.119324 282.141205,514.018494 298.272858,514.009216 
	C334.537384,513.988220 370.801910,514.006531 407.066406,514.038696 
	C408.688599,514.040161 410.310486,514.335388 411.863647,514.971436 
z"/>
<path fill="#EA6966" opacity="1.000000" stroke="none" 
	d="
M607.911377,600.675110 
	C604.939392,598.932434 601.788574,596.953308 598.757385,594.805298 
	C588.622375,587.623413 578.519226,580.396301 568.440674,573.135437 
	C567.546021,572.490906 566.918396,571.475769 566.089966,570.295776 
	C573.235901,574.381531 580.774780,578.371033 587.594238,583.346619 
	C594.687317,588.521912 601.085327,594.649963 607.911377,600.675110 
z"/>
<path fill="#EA6966" opacity="1.000000" stroke="none" 
	d="
M612.352600,707.987976 
	C614.317383,705.051453 616.815430,702.194885 618.910400,699.068237 
	C624.428284,690.832825 629.770935,682.479980 635.482361,674.016357 
	C634.066772,683.374084 628.142944,690.620422 622.475159,697.907593 
	C619.625854,701.570984 615.985046,704.618713 612.352600,707.987976 
z"/>
<path fill="#EA6966" opacity="1.000000" stroke="none" 
	d="
M637.863892,647.697266 
	C637.154114,647.193787 636.388916,646.340332 635.907593,645.349060 
	C632.109192,637.525574 628.349304,629.683228 624.619324,621.826782 
	C623.990234,620.501831 623.562317,619.081421 623.030212,617.333496 
	C627.007507,623.502930 631.273682,629.896545 634.862915,636.649780 
	C636.557678,639.838806 636.954895,643.717346 637.863892,647.697266 
z"/>
<path fill="#D7807E" opacity="1.000000" stroke="none" 
	d="
M221.882324,587.490601 
	C221.229034,586.459412 220.126678,585.023315 220.143768,583.600708 
	C220.270752,573.032104 220.736404,562.466858 220.792923,551.898926 
	C220.803177,549.980286 219.424576,548.054260 218.308319,546.035767 
	C219.333130,544.436584 220.736771,542.933350 223.072098,540.432251 
	C222.659424,546.287781 222.344284,550.759460 221.763336,556.035889 
	C221.608078,565.840881 221.718597,574.841064 221.829132,583.841248 
	C221.869965,584.924866 221.910797,586.008423 221.882324,587.490601 
z"/>
<path fill="#EA6966" opacity="1.000000" stroke="none" 
	d="
M551.916626,561.644531 
	C546.104614,558.855896 540.162659,555.735107 534.119751,552.288818 
	C539.941467,555.079651 545.864014,558.196106 551.916626,561.644531 
z"/>
<path fill="#D17B77" opacity="1.000000" stroke="none" 
	d="
M227.351166,516.892212 
	C225.300308,516.394531 223.589142,515.161438 221.892273,515.180786 
	C215.487259,515.253967 209.086899,515.733948 202.220520,516.060669 
	C210.093262,512.184631 218.933411,514.690613 227.523697,514.027771 
	C227.581604,514.929138 227.639526,515.830505 227.351166,516.892212 
z"/>
<path fill="#EF9794" opacity="1.000000" stroke="none" 
	d="
M434.176575,557.557800 
	C434.326599,567.456299 434.407593,577.810852 434.369354,588.551636 
	C434.202576,578.629883 434.155060,568.321838 434.176575,557.557800 
z"/>
<path fill="#FFBDBA" opacity="1.000000" stroke="none" 
	d="
M221.898010,583.390259 
	C221.718597,574.841064 221.608078,565.840881 221.677200,556.485718 
	C221.893524,565.066895 221.930206,574.003113 221.898010,583.390259 
z"/>
<path fill="#CC817C" opacity="1.000000" stroke="none" 
	d="
M446.951355,514.558044 
	C445.706940,515.002441 444.242035,515.057800 442.338531,515.172913 
	C439.915405,515.209351 437.930939,515.186035 435.523224,515.196045 
	C432.841919,515.661560 430.583832,516.093872 428.186066,516.887024 
	C427.368988,516.463318 426.691589,515.678772 425.388062,514.169067 
	C433.142334,514.169067 439.936584,514.169067 446.951355,514.558044 
z"/>
<path fill="#EA6966" opacity="1.000000" stroke="none" 
	d="
M565.910400,569.653809 
	C562.762878,568.190308 559.489136,566.397278 556.119263,564.277832 
	C559.276794,565.742371 562.530457,567.533325 565.910400,569.653809 
z"/>
<path fill="#D17B77" opacity="1.000000" stroke="none" 
	d="
M200.795868,516.107300 
	C197.667969,517.482178 194.132065,518.773926 190.178314,520.071655 
	C193.302933,518.726501 196.845398,517.375366 200.795868,516.107300 
z"/>
<path fill="#EA6966" opacity="1.000000" stroke="none" 
	d="
M622.009644,615.642700 
	C620.045349,613.890747 618.044983,611.790161 616.027527,609.328064 
	C617.998169,611.075684 619.985901,613.184875 622.009644,615.642700 
z"/>
<path fill="#D57A78" opacity="1.000000" stroke="none" 
	d="
M637.628418,662.885437 
	C637.715881,658.517578 637.803284,654.149780 637.915771,649.301880 
	C638.299561,653.623474 638.658264,658.425049 638.732422,663.498291 
	C638.174744,663.475159 637.901550,663.180298 637.628418,662.885437 
z"/>
<path fill="#EA6966" opacity="1.000000" stroke="none" 
	d="
M615.013977,607.634399 
	C613.741577,606.869690 612.444092,605.747314 611.077698,604.290283 
	C612.335510,605.062622 613.662231,606.169678 615.013977,607.634399 
z"/>
<path fill="#EA6966" opacity="1.000000" stroke="none" 
	d="
M637.403503,663.032471 
	C637.901550,663.180298 638.174744,663.475159 638.673584,663.971191 
	C638.604004,664.615601 638.308777,665.058838 637.701660,665.762085 
	C637.389709,666.022095 636.987061,666.021973 636.987061,666.021973 
	C637.050903,665.074524 637.114746,664.127014 637.403503,663.032471 
z"/>
<path fill="#EA6966" opacity="1.000000" stroke="none" 
	d="
M555.909058,563.650879 
	C554.786133,563.509033 553.532715,563.049866 552.146545,562.268188 
	C553.268738,562.408325 554.523560,562.870911 555.909058,563.650879 
z"/>
<path fill="#EA6966" opacity="1.000000" stroke="none" 
	d="
M635.987000,670.043030 
	C636.120605,669.397156 636.254150,668.751343 636.779663,668.218933 
	C637.416809,668.580627 637.662048,668.828796 637.907349,669.076965 
	C637.804871,669.366638 637.702454,669.656311 637.074829,669.996216 
	C636.362061,670.045288 636.174500,670.044189 635.987000,670.043030 
z"/>
<path fill="#EA6966" opacity="1.000000" stroke="none" 
	d="
M611.016602,603.633545 
	C610.426392,603.510742 609.807495,603.028870 609.097595,602.252563 
	C609.667053,602.396912 610.327454,602.835754 611.016602,603.633545 
z"/>
<path fill="#D57A78" opacity="1.000000" stroke="none" 
	d="
M635.969604,670.434692 
	C636.174500,670.044189 636.362061,670.045288 636.830811,670.052917 
	C636.943481,671.000549 636.775146,671.941772 636.270813,673.036499 
	C635.940613,672.402161 635.946411,671.614258 635.969604,670.434692 
z"/>
<path fill="#D57A78" opacity="1.000000" stroke="none" 
	d="
M637.961121,668.694763 
	C637.662048,668.828796 637.416809,668.580627 637.004150,668.128723 
	C636.877014,667.502563 636.917297,667.080078 636.972290,666.339783 
	C636.987061,666.021973 637.389709,666.022095 637.591064,666.023682 
	C637.866577,666.787720 637.940735,667.550110 637.961121,668.694763 
z"/>
<path fill="#D17B77" opacity="1.000000" stroke="none" 
	d="
M188.907257,520.104858 
	C188.677490,520.430054 188.105957,520.666870 187.226013,520.947693 
	C187.466888,520.666626 188.016174,520.341553 188.907257,520.104858 
z"/>
<path fill="#D7807E" opacity="1.000000" stroke="none" 
	d="
M215.686783,548.053955 
	C215.762680,548.466614 215.553452,549.018738 215.140091,549.790710 
	C215.091187,549.404846 215.246429,548.799072 215.686783,548.053955 
z"/>
<path fill="#D17B77" opacity="1.000000" stroke="none" 
	d="
M183.809158,522.102051 
	C183.584518,522.461121 182.995773,522.723633 182.082047,523.018677 
	C182.319733,522.702637 182.882401,522.354065 183.809158,522.102051 
z"/>
<path fill="#D7807E" opacity="1.000000" stroke="none" 
	d="
M217.709717,545.979370 
	C217.792206,546.208313 217.600876,546.494812 217.164948,546.879761 
	C217.092209,546.664490 217.264053,546.350647 217.709717,545.979370 
z"/>
<path fill="#D7807E" opacity="1.000000" stroke="none" 
	d="
M212.744507,551.994995 
	C212.805466,552.192322 212.594101,552.466248 212.163528,552.882080 
	C212.120285,552.706543 212.296234,552.389038 212.744507,551.994995 
z"/>
<path fill="#D17B77" opacity="1.000000" stroke="none" 
	d="
M185.932831,521.088684 
	C185.957916,521.373169 185.654465,521.593994 185.090469,521.923096 
	C185.088058,521.695862 185.346176,521.360474 185.932831,521.088684 
z"/>
<path fill="#EA6966" opacity="1.000000" stroke="none" 
	d="
M622.968323,616.742554 
	C622.793091,616.785156 622.537903,616.571472 622.138916,616.151978 
	C622.292908,616.126282 622.590576,616.306274 622.968323,616.742554 
z"/>
<path fill="#D7807E" opacity="1.000000" stroke="none" 
	d="
M216.694275,546.964600 
	C216.784302,547.206787 216.586578,547.492798 216.146942,547.888306 
	C216.072205,547.668030 216.239349,547.338196 216.694275,546.964600 
z"/>
<path fill="#EA6966" opacity="1.000000" stroke="none" 
	d="
M615.964233,608.746094 
	C615.749023,608.835693 615.495422,608.623108 615.138000,608.159851 
	C615.293152,608.132996 615.590393,608.311218 615.964233,608.746094 
z"/>
<path fill="#EA6966" opacity="1.000000" stroke="none" 
	d="
M608.968018,601.747070 
	C608.754333,601.836243 608.499634,601.623779 608.139526,601.161194 
	C608.294067,601.134399 608.591736,601.312500 608.968018,601.747070 
z"/>
<path fill="#D7807E" opacity="1.000000" stroke="none" 
	d="
M214.739197,550.026367 
	C214.775787,550.198975 214.550476,550.456116 214.120728,550.869507 
	C214.103287,550.720764 214.290283,550.415771 214.739197,550.026367 
z"/>
<path fill="#D7807E" opacity="1.000000" stroke="none" 
	d="
M213.745163,550.994751 
	C213.799561,551.190613 213.580093,551.462158 213.139694,551.876587 
	C213.102951,551.703064 213.287125,551.386719 213.745163,550.994751 
z"/>
<path fill="#D7807E" opacity="1.000000" stroke="none" 
	d="
M210.788620,554.030823 
	C210.898270,554.212769 210.734848,554.448181 210.394257,554.819458 
	C210.345184,554.684875 210.444672,554.394531 210.788620,554.030823 
z"/>
<path fill="#D7807E" opacity="1.000000" stroke="none" 
	d="
M211.752899,553.019348 
	C211.817368,553.218506 211.616669,553.498840 211.187012,553.905884 
	C211.134628,553.721985 211.311203,553.411255 211.752899,553.019348 
z"/>
<path fill="#D17B77" opacity="1.000000" stroke="none" 
	d="
M180.906921,523.098633 
	C180.934845,523.378967 180.642609,523.595886 180.099243,523.921631 
	C180.094345,523.698608 180.340546,523.366943 180.906921,523.098633 
z"/>
</svg>